<svg width="28" height="28" viewBox="0 0 28 28" fill="none" xmlns="http://www.w3.org/2000/svg">
<path fill-rule="evenodd" clip-rule="evenodd" d="M18.551 3.1186C22.393 6.96058 22.6799 13.0271 19.4406 17.2956L27.7881 25.6431L25.8096 27.6217L17.4831 19.2952C13.2063 22.6879 7.01693 22.4501 3.11826 18.5514C-1.08251 14.3506 -1.03316 7.49048 3.22849 3.22883C7.49014 -1.03281 14.3503 -1.08217 18.551 3.1186ZM17.7596 3.91003C21.5295 7.67995 21.4853 13.8365 17.6607 17.661C13.8361 21.4856 7.6796 21.5299 3.90968 17.76C0.139761 13.99 0.184052 7.83351 4.00861 4.00895C7.83317 0.184398 13.9897 0.140107 17.7596 3.91003Z" fill="#2B4074"/>
</svg>
